<svg width="18" height="20" viewBox="0 0 18 20" fill="none" xmlns="http://www.w3.org/2000/svg">
<path d="M15.4167 17.4166H2.58333V7.33329H15.4167M12.6667 0.916626V2.74996H5.33333V0.916626H3.5V2.74996H2.58333C1.56583 2.74996 0.75 3.56579 0.75 4.58329V17.4166C0.75 17.9029 0.943154 18.3692 1.28697 18.713C1.63079 19.0568 2.0971 19.25 2.58333 19.25H15.4167C15.9029 19.25 16.3692 19.0568 16.713 18.713C17.0568 18.3692 17.25 17.9029 17.25 17.4166V4.58329C17.25 4.09706 17.0568 3.63075 16.713 3.28693C16.3692 2.94311 15.9029 2.74996 15.4167 2.74996H14.5V0.916626M13.5833 11H9V15.5833H13.5833V11Z" fill="white"/>
</svg>
