<svg width="16" height="15" viewBox="0 0 16 15" fill="none" xmlns="http://www.w3.org/2000/svg">
<path d="M15.7526 7.87422C15.7526 8.49648 15.2499 8.99922 14.6276 8.99922C14.0054 8.99922 13.5026 8.49648 13.5026 7.87422C13.5026 6.01094 11.9909 4.49922 10.1276 4.49922H4.50264V5.62422C4.50264 6.07773 4.22842 6.48906 3.80654 6.66484C3.38467 6.84063 2.90303 6.74219 2.57959 6.42227L0.32959 4.17227C-0.109863 3.73281 -0.109863 3.01914 0.32959 2.57969L2.57959 0.329687C2.90303 0.00624999 3.38467 -0.0886719 3.80654 0.0871094C4.22842 0.262891 4.50264 0.670703 4.50264 1.12422V2.24922H10.1276C13.2354 2.24922 15.7526 4.76641 15.7526 7.87422Z" fill="#2B73FF"/>
<path d="M15.7526 8.98633C15.7526 8.36406 15.2499 7.86133 14.6276 7.86133C14.0054 7.86133 13.5026 8.36406 13.5026 8.98633C13.5026 10.8496 11.9909 12.3613 10.1276 12.3613H1.62588C1.00553 12.3613 0.502637 12.8642 0.502637 13.4846C0.502637 14.1049 1.00553 14.6078 1.62588 14.6078H10.1276C13.2354 14.6078 15.7526 12.0906 15.7526 8.98281V8.98633Z" fill="#2B73FF"/>
<path d="M13.4987 7.72949H15.7526V9.15723H13.4987V7.72949Z" fill="#2B73FF"/>
</svg>
