<svg width="130" height="23" viewBox="0 0 130 23" fill="none" xmlns="http://www.w3.org/2000/svg">
<g clip-path="url(#clip0_2_1127)">
<path d="M17.5129 0.549805V3.79081H10.4085V22.3653H7.09545V3.79081H0V0.549805H17.5129Z" fill="#161414"/>
<path d="M23.9802 22.7697C22.5147 22.7697 21.1792 22.4009 19.974 21.6634C18.7687 20.9258 17.8076 19.9364 17.0909 18.695C16.374 17.4536 16.0156 16.0797 16.0156 14.5734C16.0156 13.4306 16.2226 12.3632 16.6369 11.3711C17.0509 10.379 17.6217 9.50633 18.3491 8.75318C19.0766 8.00004 19.9235 7.41052 20.8898 6.98464C21.8562 6.55876 22.8863 6.3457 23.9802 6.3457C25.4457 6.3457 26.7809 6.71448 27.9862 7.45203C29.1916 8.18958 30.1526 9.1817 30.8695 10.4284C31.5862 11.675 31.9445 13.0566 31.9445 14.5734C31.9445 15.7057 31.7375 16.7652 31.3233 17.7521C30.9093 18.7391 30.3385 19.6091 29.6111 20.3622C28.8836 21.1154 28.0394 21.7049 27.0782 22.1308C26.1172 22.5567 25.0844 22.7697 23.9802 22.7697ZM23.9802 19.5287C24.8601 19.5287 25.6518 19.3005 26.3548 18.8441C27.0578 18.3877 27.613 17.783 28.0205 17.0299C28.4278 16.2767 28.6317 15.4579 28.6317 14.5734C28.6317 13.6678 28.4231 12.8361 28.0057 12.0779C27.5885 11.3195 27.0283 10.7148 26.3254 10.2636C25.6224 9.81228 24.8406 9.58671 23.9802 9.58671C23.1046 9.58671 22.3151 9.81602 21.6121 10.2748C20.9092 10.7335 20.3528 11.3405 19.943 12.0957C19.5335 12.851 19.3285 13.6768 19.3285 14.5734C19.3285 15.501 19.5402 16.3387 19.9637 17.0865C20.3869 17.8344 20.9518 18.4285 21.6577 18.8687C22.3638 19.3086 23.138 19.5287 23.9802 19.5287Z" fill="#161414"/>
<path d="M34.1406 22.3646V6.78222H37.4539V8.6753C37.9564 8.0546 38.4926 7.55052 39.0622 7.16352C39.6316 6.77651 40.3081 6.58301 41.0915 6.58301C42.261 6.58301 43.3001 6.8402 44.209 7.35504C45.1179 7.86965 45.8777 8.58348 46.4886 9.49653C47.1101 8.57162 47.8786 7.85472 48.7945 7.34604C49.7103 6.83735 50.7406 6.58301 51.8857 6.58301C53.2524 6.58301 54.4565 6.91884 55.4981 7.5905C56.5397 8.26216 57.3565 9.15675 57.9486 10.2743C58.5404 11.3918 58.8363 12.6227 58.8363 13.9671V22.3646H55.5232V13.9671C55.5232 13.1997 55.3735 12.5041 55.0744 11.8801C54.7754 11.2561 54.3544 10.7575 53.8122 10.3841C53.2697 10.0109 52.6276 9.82423 51.8857 9.82423C51.1544 9.82423 50.5071 10.0109 49.9434 10.3841C49.3794 10.7575 48.9388 11.2561 48.6214 11.8801C48.3039 12.5041 48.1451 13.1997 48.1451 13.9671V22.3646H44.832V13.9671C44.832 13.1997 44.6733 12.5041 44.3558 11.8801C44.0384 11.2561 43.5976 10.7575 43.0338 10.3841C42.4701 10.0109 41.8225 9.82423 41.0915 9.82423C40.3968 9.82423 39.7742 10.0197 39.2234 10.4111C38.6727 10.8023 38.24 11.3204 37.9254 11.9653C37.6111 12.6101 37.4539 13.3163 37.4539 14.0837V22.3646H34.1406Z" fill="#161414"/>
<path d="M94.135 10.0224H90.7947L90.7855 22.3639H87.4726L87.4819 10.0224H84.3594V6.78159H87.4819L87.4726 1.88867H90.7855L90.7947 6.78159H94.135V10.0224Z" fill="#161414"/>
<path d="M103.254 22.7697C101.788 22.7697 100.453 22.4009 99.2474 21.6634C98.0422 20.9258 97.081 19.9364 96.3643 18.695C95.6474 17.4536 95.2891 16.0797 95.2891 14.5734C95.2891 13.4306 95.4961 12.3632 95.9103 11.3711C96.3244 10.379 96.8953 9.50633 97.6226 8.75318C98.35 8.00004 99.1969 7.41052 100.163 6.98464C101.13 6.55876 102.16 6.3457 103.254 6.3457C104.719 6.3457 106.054 6.71448 107.26 7.45203C108.466 8.18958 109.427 9.1817 110.143 10.4284C110.859 11.675 111.219 13.0566 111.219 14.5734C111.219 15.7057 111.012 16.7652 110.597 17.7521C110.184 18.7391 109.611 19.6091 108.884 20.3622C108.156 21.1154 107.312 21.7049 106.352 22.1308C105.391 22.5567 104.358 22.7697 103.254 22.7697ZM103.254 19.5287C104.134 19.5287 104.925 19.3005 105.628 18.8441C106.331 18.3877 106.888 17.783 107.294 17.0299C107.703 16.2767 107.905 15.4579 107.905 14.5734C107.905 13.6678 107.696 12.8361 107.28 12.0779C106.863 11.3195 106.302 10.7148 105.599 10.2636C104.896 9.81228 104.114 9.58671 103.254 9.58671C102.378 9.58671 101.589 9.81602 100.886 10.2748C100.183 10.7335 99.6262 11.3405 99.2165 12.0957C98.8069 12.851 98.6019 13.6768 98.6019 14.5734C98.6019 15.501 98.8137 16.3387 99.2371 17.0865C99.6603 17.8344 100.225 18.4285 100.931 18.8687C101.637 19.3086 102.411 19.5287 103.254 19.5287Z" fill="#161414"/>
<path fill-rule="evenodd" clip-rule="evenodd" d="M71.9085 10.4762C71.8764 10.5331 71.8152 10.5685 71.7487 10.5685C71.682 10.5683 71.6211 10.5325 71.5893 10.4754C70.9675 9.35828 70.6608 8.52739 70.4474 7.33829C70.4474 7.33829 67.9185 6.83458 65.9445 8.69498C65.3749 9.23183 66.6962 6.14137 68.9915 5.46207C68.9915 5.46207 68.3203 4.38476 67.2068 3.98198C67.1702 3.96998 67.1448 3.93742 67.1426 3.89971C67.1403 3.86219 67.1617 3.82696 67.1965 3.81077C67.7353 3.58967 69.2015 3.10824 70.9844 3.50797L70.6147 0.22346C71.2572 -0.0764828 72.2593 -0.0724836 72.8832 0.22346L72.5134 3.50797C74.2961 3.10824 75.7623 3.58967 76.3016 3.81039C76.3363 3.82677 76.3575 3.86219 76.3552 3.89971C76.3528 3.93742 76.3276 3.96998 76.291 3.98236C75.1773 4.38476 74.5063 5.46207 74.5063 5.46207C76.8016 6.14137 78.093 9.26325 77.5117 8.73745C75.3421 6.77516 73.1312 7.25735 73.1312 7.25735C72.9175 8.44722 72.5415 9.34762 71.9085 10.4762Z" fill="#00BD50"/>
<path fill-rule="evenodd" clip-rule="evenodd" d="M67.9862 5.31883C65.8554 6.50255 64.8154 8.15263 64.1693 9.86636C64.6682 10.2268 64.9919 10.8061 64.9919 11.4595V15.1868C64.9919 15.5766 64.8768 15.9403 64.6777 16.2466C65.8108 18.2368 67.8218 19.7054 70.2118 20.1752C70.256 20.1186 70.3042 20.0647 70.3563 20.0139C70.6658 19.711 71.0856 19.541 71.5233 19.541H74.6344C75.0721 19.541 75.4919 19.711 75.8014 20.0139C76.1108 20.3166 76.2847 20.7272 76.2847 21.1554V21.1558C76.2847 21.584 76.1108 21.9947 75.8014 22.2974C75.4919 22.6003 75.0721 22.7703 74.6344 22.7703H71.5233C71.0856 22.7703 70.6658 22.6003 70.3563 22.2974C70.2698 22.2129 70.194 22.12 70.1297 22.0207C67.0665 21.5122 64.4753 19.6806 63.0242 17.1651C63.0059 17.1654 62.9874 17.1658 62.9689 17.1658H62.9683C61.8511 17.1658 60.9453 16.2797 60.9453 15.1868V11.4595C60.9453 10.6172 61.4832 9.89765 62.2415 9.61194C63.0005 7.31286 64.2667 5.56549 66.4035 4.36766C66.5223 4.30094 67.6861 4.77399 67.9862 5.31883ZM75.6481 5.21576C76.0398 4.58412 77.1935 4.29425 77.2905 4.34813C79.4402 5.54216 80.7179 7.2926 81.483 9.59819C82.2612 9.87378 82.8173 10.6031 82.8173 11.4595V15.1868C82.8173 16.2797 81.9115 17.1658 80.7942 17.1658H80.7935C79.6762 17.1658 78.7705 16.2797 78.7705 15.1868V11.4595C78.7705 10.8177 79.0829 10.2472 79.567 9.88553C78.9265 8.17234 77.2554 6.14017 75.6481 5.21576Z" fill="#F4363F"/>
</g>
<path d="M113.549 22.8706C113.267 22.8706 113.028 22.7703 112.832 22.5699C112.642 22.3694 112.547 22.1251 112.547 21.8369C112.547 21.555 112.642 21.3138 112.832 21.1133C113.028 20.9128 113.267 20.8126 113.549 20.8126C113.832 20.8126 114.071 20.9128 114.267 21.1133C114.463 21.3138 114.561 21.555 114.561 21.8369C114.561 22.1251 114.463 22.3694 114.267 22.5699C114.071 22.7703 113.832 22.8706 113.549 22.8706Z" fill="#161414"/>
<path d="M123.909 13.229H125.822V22.6262H123.899L123.826 21.2636C123.556 21.746 123.191 22.1345 122.731 22.4289C122.277 22.7234 121.738 22.8706 121.112 22.8706C120.432 22.8706 119.794 22.7421 119.199 22.4853C118.611 22.2222 118.089 21.8588 117.636 21.3952C117.188 20.9316 116.835 20.3991 116.578 19.7977C116.326 19.19 116.201 18.5385 116.201 17.8431C116.201 17.1727 116.323 16.5431 116.569 15.9542C116.814 15.3591 117.154 14.8391 117.59 14.3943C118.025 13.9495 118.528 13.6018 119.098 13.3512C119.674 13.0943 120.291 12.9659 120.947 12.9659C121.615 12.9659 122.204 13.1225 122.713 13.4358C123.228 13.7427 123.651 14.1374 123.982 14.6198L123.909 13.229ZM121.158 20.9817C121.71 20.9817 122.185 20.8408 122.584 20.5589C122.989 20.2769 123.292 19.8979 123.495 19.4218C123.703 18.9457 123.792 18.4194 123.761 17.8431C123.725 17.2918 123.58 16.7906 123.329 16.3395C123.084 15.8884 122.756 15.5313 122.345 15.2682C121.934 14.9988 121.468 14.8641 120.947 14.8641C120.401 14.8641 119.907 15.0051 119.466 15.287C119.031 15.5689 118.693 15.948 118.454 16.4241C118.215 16.9002 118.111 17.4296 118.141 18.0122C118.178 18.5572 118.338 19.0553 118.62 19.5064C118.908 19.9574 119.273 20.3177 119.714 20.587C120.162 20.8502 120.643 20.9817 121.158 20.9817Z" fill="#161414"/>
<path d="M128.023 13.229H129.936V22.6262H128.023V13.229ZM128.989 11.6785C128.701 11.6785 128.458 11.5814 128.262 11.3872C128.066 11.193 127.968 10.9486 127.968 10.6542C127.968 10.366 128.066 10.1248 128.262 9.93059C128.458 9.73012 128.701 9.62988 128.989 9.62988C129.271 9.62988 129.51 9.73012 129.706 9.93059C129.902 10.1248 130.001 10.366 130.001 10.6542C130.001 10.9486 129.902 11.193 129.706 11.3872C129.51 11.5814 129.271 11.6785 128.989 11.6785Z" fill="#161414"/>
<defs>
<clipPath id="clip0_2_1127">
<rect width="111.342" height="22.8703" fill="white"/>
</clipPath>
</defs>
</svg>
