<svg width="170" height="30" viewBox="0 0 170 30" fill="none" xmlns="http://www.w3.org/2000/svg">
<g clip-path="url(#clip0_2001_191)">
<path d="M22.9015 0.71875V4.95699H13.6111V29.2467H9.27866V4.95699H0V0.71875H22.9015Z" fill="#F2F2F2"/>
<path d="M31.3627 29.7764C29.4463 29.7764 27.6999 29.2942 26.1238 28.3297C24.5477 27.3652 23.2908 26.0713 22.3536 24.4479C21.4161 22.8245 20.9475 21.028 20.9475 19.0582C20.9475 17.5638 21.2182 16.1679 21.7599 14.8705C22.3013 13.5731 23.0477 12.432 23.999 11.4471C24.9503 10.4622 26.0578 9.69135 27.3215 9.13442C28.5852 8.5775 29.9323 8.29889 31.3627 8.29889C33.2791 8.29889 35.0252 8.78114 36.6013 9.74563C38.1777 10.7101 39.4343 12.0075 40.3718 13.6378C41.309 15.268 41.7776 17.0747 41.7776 19.0582C41.7776 20.5388 41.5069 21.9244 40.9652 23.2149C40.4238 24.5056 39.6774 25.6433 38.7261 26.6282C37.7748 27.6131 36.6709 28.384 35.4139 28.9409C34.1573 29.4978 32.8067 29.7764 31.3627 29.7764ZM31.3627 25.5382C32.5134 25.5382 33.5486 25.2398 34.4679 24.6429C35.3872 24.0461 36.1133 23.2554 36.6462 22.2705C37.1788 21.2856 37.4454 20.2148 37.4454 19.0582C37.4454 17.874 37.1726 16.7863 36.6268 15.7948C36.0813 14.803 35.3487 14.0123 34.4295 13.4223C33.5102 12.8321 32.4878 12.5371 31.3627 12.5371C30.2176 12.5371 29.1853 12.837 28.266 13.437C27.3467 14.0367 26.6192 14.8306 26.0833 15.8181C25.5478 16.8058 25.2797 17.8858 25.2797 19.0582C25.2797 20.2711 25.5566 21.3666 26.1103 22.3446C26.6638 23.3226 27.4025 24.0995 28.3256 24.6751C29.249 25.2504 30.2614 25.5382 31.3627 25.5382Z" fill="#F2F2F2"/>
<path d="M44.6406 29.2468V8.86988H48.9734V11.3454C49.6305 10.5338 50.3316 9.87459 51.0765 9.3685C51.8211 8.86242 52.7058 8.60938 53.7302 8.60938C55.2596 8.60938 56.6184 8.94571 57.807 9.61895C58.9955 10.2919 59.989 11.2254 60.788 12.4194C61.6007 11.2099 62.6057 10.2724 63.8033 9.60718C65.001 8.94198 66.3483 8.60938 67.8457 8.60938C69.6329 8.60938 71.2076 9.04854 72.5696 9.92686C73.9317 10.8052 74.9998 11.975 75.7741 13.4364C76.548 14.8978 76.935 16.5074 76.935 18.2655V29.2468H72.6025V18.2655C72.6025 17.2619 72.4067 16.3523 72.0156 15.5363C71.6245 14.7203 71.074 14.0683 70.3649 13.58C69.6556 13.092 68.8158 12.8479 67.8457 12.8479C66.8895 12.8479 66.043 13.092 65.3057 13.58C64.5682 14.0683 63.9921 14.7203 63.577 15.5363C63.1618 16.3523 62.9542 17.2619 62.9542 18.2655V29.2468H58.6217V18.2655C58.6217 17.2619 58.4141 16.3523 57.999 15.5363C57.5838 14.7203 57.0075 14.0683 56.2702 13.58C55.5329 13.092 54.6862 12.8479 53.7302 12.8479C52.8218 12.8479 52.0076 13.1035 51.2874 13.6154C50.5671 14.1269 50.0013 14.8045 49.59 15.6477C49.1789 16.491 48.9734 17.4144 48.9734 18.418V29.2468H44.6406Z" fill="#F2F2F2"/>
<path d="M123.096 13.1072H118.728L118.716 29.2462H114.383L114.395 13.1072H110.312V8.86925H114.395L114.383 2.47083H118.716L118.728 8.86925H123.096V13.1072Z" fill="#F2F2F2"/>
<path d="M135.019 29.7764C133.102 29.7764 131.356 29.2941 129.78 28.3296C128.204 27.3652 126.947 26.0712 126.01 24.4478C125.072 22.8245 124.604 21.0279 124.604 19.0581C124.604 17.5637 124.874 16.1678 125.416 14.8705C125.957 13.5731 126.704 12.432 127.655 11.4471C128.606 10.4622 129.714 9.69128 130.977 9.13436C132.241 8.57744 133.588 8.29883 135.019 8.29883C136.935 8.29883 138.681 8.78108 140.258 9.74557C141.835 10.7101 143.092 12.0074 144.028 13.6377C144.965 15.268 145.435 17.0746 145.435 19.0581C145.435 20.5388 145.164 21.9243 144.621 23.2148C144.081 24.5056 143.332 25.6433 142.381 26.6281C141.43 27.613 140.326 28.3839 139.07 28.9409C137.813 29.4978 136.463 29.7764 135.019 29.7764ZM135.019 25.5381C136.169 25.5381 137.205 25.2397 138.124 24.6429C139.043 24.046 139.771 23.2553 140.302 22.2704C140.837 21.2855 141.101 20.2148 141.101 19.0581C141.101 17.8739 140.828 16.7862 140.285 15.7947C139.738 14.803 139.005 14.0122 138.085 13.4223C137.166 12.832 136.144 12.5371 135.019 12.5371C133.874 12.5371 132.841 12.8369 131.922 13.4369C131.003 14.0367 130.275 14.8305 129.739 15.818C129.204 16.8058 128.936 17.8857 128.936 19.0581C128.936 20.2711 129.213 21.3665 129.766 22.3445C130.32 23.3225 131.059 24.0995 131.982 24.675C132.905 25.2503 133.917 25.5381 135.019 25.5381Z" fill="#F2F2F2"/>
<path fill-rule="evenodd" clip-rule="evenodd" d="M94.0381 13.6996C93.9961 13.7741 93.9161 13.8204 93.8291 13.8204C93.7419 13.8201 93.6622 13.7733 93.6207 13.6986C92.8076 12.2377 92.4065 11.1512 92.1274 9.59622C92.1274 9.59622 88.8204 8.93752 86.239 11.3704C85.4942 12.0724 87.222 8.03102 90.2236 7.14271C90.2236 7.14271 89.3459 5.73391 87.8897 5.2072C87.8419 5.19151 87.8087 5.14892 87.8057 5.09962C87.8028 5.05056 87.8307 5.00449 87.8762 4.98332C88.5809 4.69419 90.4982 4.06462 92.8297 4.58735L92.3462 0.292216C93.1864 -0.100016 94.4969 -0.0947862 95.3127 0.292216L94.8291 4.58735C97.1603 4.06462 99.0777 4.69419 99.7829 4.98282C99.8283 5.00424 99.856 5.05056 99.8531 5.09962C99.8499 5.14892 99.8169 5.19151 99.7691 5.2077C98.3127 5.73391 97.4352 7.14271 97.4352 7.14271C100.437 8.03102 102.126 12.1135 101.365 11.4259C98.5282 8.85982 95.637 9.49038 95.637 9.49038C95.3576 11.0464 94.8658 12.2238 94.0381 13.6996Z" fill="#00BD50"/>
<path fill-rule="evenodd" clip-rule="evenodd" d="M88.9084 6.95442C86.122 8.50236 84.762 10.6602 83.9172 12.9012C84.5696 13.3725 84.9929 14.1301 84.9929 14.9845V19.8586C84.9929 20.3685 84.8423 20.844 84.5819 21.2446C86.0637 23.8472 88.6935 25.7676 91.8189 26.3819C91.8766 26.3079 91.9397 26.2374 92.0079 26.171C92.4126 25.7749 92.9615 25.5526 93.5339 25.5526H97.6022C98.1747 25.5526 98.7236 25.7749 99.1283 26.171C99.533 26.5668 99.7604 27.1039 99.7604 27.6638V27.6643C99.7604 28.2243 99.533 28.7613 99.1283 29.1571C98.7236 29.5532 98.1747 29.7755 97.6022 29.7755H93.5339C92.9615 29.7755 92.4126 29.5532 92.0079 29.1571C91.8948 29.0467 91.7957 28.9252 91.7115 28.7953C87.7058 28.1304 84.3172 25.7352 82.4197 22.4456C82.3957 22.4461 82.3716 22.4466 82.3474 22.4466H82.3467C80.8856 22.4466 79.7012 21.2879 79.7012 19.8586V14.9845C79.7012 13.883 80.4046 12.9421 81.3962 12.5685C82.3887 9.56199 84.0446 7.27697 86.8387 5.71058C86.9942 5.62333 88.5161 6.24194 88.9084 6.95442ZM98.9279 6.81963C99.4401 5.99364 100.949 5.61458 101.076 5.68504C103.887 7.24646 105.558 9.5355 106.558 12.5505C107.576 12.9109 108.303 13.8646 108.303 14.9845V19.8586C108.303 21.2879 107.118 22.4466 105.657 22.4466H105.656C104.195 22.4466 103.011 21.2879 103.011 19.8586V14.9845C103.011 14.1453 103.419 13.3992 104.053 12.9263C103.215 10.6859 101.03 8.02847 98.9279 6.81963Z" fill="#F4363F"/>
</g>
<path d="M148.487 29.9065C148.118 29.9065 147.805 29.7755 147.549 29.5133C147.3 29.2511 147.176 28.9316 147.176 28.5548C147.176 28.1861 147.3 27.8707 147.549 27.6086C147.805 27.3464 148.118 27.2153 148.487 27.2153C148.856 27.2153 149.168 27.3464 149.425 27.6086C149.682 27.8707 149.81 28.1861 149.81 28.5548C149.81 28.9316 149.682 29.2511 149.425 29.5133C149.168 29.7755 148.856 29.9065 148.487 29.9065Z" fill="#F2F2F2"/>
<path d="M162.033 17.2984H164.535V29.587H162.021L161.925 27.8052C161.572 28.436 161.095 28.9439 160.494 29.329C159.9 29.714 159.195 29.9065 158.377 29.9065C157.487 29.9065 156.653 29.7386 155.875 29.4027C155.105 29.0586 154.424 28.5835 153.83 27.9772C153.245 27.371 152.784 26.6746 152.447 25.8881C152.118 25.0935 151.954 24.2415 151.954 23.3321C151.954 22.4555 152.114 21.6322 152.435 20.8621C152.756 20.0838 153.201 19.4038 153.77 18.8222C154.339 18.2405 154.997 17.7858 155.743 17.4581C156.496 17.1222 157.302 16.9543 158.16 16.9543C159.034 16.9543 159.804 17.1591 160.47 17.5687C161.143 17.9701 161.697 18.4863 162.13 19.1171L162.033 17.2984ZM158.437 27.4365C159.159 27.4365 159.78 27.2522 160.301 26.8835C160.831 26.5149 161.227 26.0192 161.492 25.3966C161.765 24.774 161.881 24.0858 161.841 23.3321C161.793 22.6112 161.604 21.9558 161.276 21.3659C160.955 20.7761 160.526 20.3091 159.989 19.965C159.451 19.6127 158.842 19.4366 158.16 19.4366C157.447 19.4366 156.801 19.6209 156.224 19.9896C155.654 20.3582 155.213 20.8539 154.901 21.4765C154.588 22.0991 154.452 22.7914 154.492 23.5533C154.54 24.266 154.748 24.9173 155.117 25.5072C155.494 26.0971 155.971 26.5681 156.549 26.9204C157.134 27.2645 157.763 27.4365 158.437 27.4365Z" fill="#F2F2F2"/>
<path d="M167.414 17.2984H169.916V29.587H167.414V17.2984ZM168.677 15.2707C168.3 15.2707 167.983 15.1437 167.726 14.8898C167.47 14.6358 167.342 14.3163 167.342 13.9313C167.342 13.5544 167.47 13.239 167.726 12.985C167.983 12.7229 168.3 12.5918 168.677 12.5918C169.046 12.5918 169.358 12.7229 169.615 12.985C169.871 13.239 170 13.5544 170 13.9313C170 14.3163 169.871 14.6358 169.615 14.8898C169.358 15.1437 169.046 15.2707 168.677 15.2707Z" fill="#F2F2F2"/>
<defs>
<clipPath id="clip0_2001_191">
<rect width="145.601" height="29.9073" fill="white"/>
</clipPath>
</defs>
</svg>
